<?xml version="1.0" encoding="UTF-8"?>
<!--
  Fennie the Fox — IDLE pose
  Placeholder art. Friendly, calm, neutral. Replace with hand-drawn
  illustration before v1.0 store submission (see plan §11 Appendix D).
  Palette pulled from theme/colors.ts (terracotta + coral + cream).
-->
<svg xmlns="http://www.w3.org/2000/svg" viewBox="0 0 240 240" fill="none">
  <!-- Body -->
  <ellipse cx="120" cy="170" rx="78" ry="56" fill="#D87C5A"/>
  <!-- Belly -->
  <ellipse cx="120" cy="180" rx="46" ry="34" fill="#FDF0D5"/>
  <!-- Tail -->
  <path d="M195 160 Q235 130 220 100 Q210 130 190 145 Z" fill="#D87C5A"/>
  <path d="M212 110 Q225 105 222 95" stroke="#FDF0D5" stroke-width="6" stroke-linecap="round"/>
  <!-- Head -->
  <circle cx="120" cy="100" r="62" fill="#D87C5A"/>
  <!-- Face highlight -->
  <path d="M82 110 Q120 142 158 110 Q158 138 120 150 Q82 138 82 110 Z" fill="#FDF0D5"/>
  <!-- Ears -->
  <path d="M70 60 L60 18 L96 52 Z" fill="#D87C5A"/>
  <path d="M170 60 L180 18 L144 52 Z" fill="#D87C5A"/>
  <path d="M76 56 L68 30 L92 52 Z" fill="#FF8A65"/>
  <path d="M164 56 L172 30 L148 52 Z" fill="#FF8A65"/>
  <!-- Eyes (gentle closed-curve smile) -->
  <path d="M96 96 Q104 102 112 96" stroke="#3D2C1E" stroke-width="5" stroke-linecap="round"/>
  <path d="M128 96 Q136 102 144 96" stroke="#3D2C1E" stroke-width="5" stroke-linecap="round"/>
  <!-- Snout/nose -->
  <ellipse cx="120" cy="120" rx="9" ry="6" fill="#3D2C1E"/>
  <!-- Mouth -->
  <path d="M120 126 Q120 134 114 134" stroke="#3D2C1E" stroke-width="3" stroke-linecap="round" fill="none"/>
  <path d="M120 126 Q120 134 126 134" stroke="#3D2C1E" stroke-width="3" stroke-linecap="round" fill="none"/>
  <!-- Cheek blush -->
  <circle cx="78" cy="118" r="8" fill="#F4A5B5" opacity="0.6"/>
  <circle cx="162" cy="118" r="8" fill="#F4A5B5" opacity="0.6"/>
</svg>
